<?xml version="1.0" standalone="no"?>
<!DOCTYPE svg PUBLIC "-//W3C//DTD SVG 20010904//EN"
 "http://www.w3.org/TR/2001/REC-SVG-20010904/DTD/svg10.dtd">
<svg version="1.0" xmlns="http://www.w3.org/2000/svg"
 width="800.000000pt" height="800.000000pt" viewBox="0 0 800.000000 800.000000"
 preserveAspectRatio="xMidYMid meet">
<metadata>
Created by potrace 1.11, written by Peter Selinger 2001-2013
</metadata>
<g transform="translate(0.000000,800.000000) scale(0.100000,-0.100000)"
fill="#000000" stroke="none">
<path d="M2700 7900 l0 -100 -50 0 -50 0 0 -125 0 -125 -46 0 -46 0 5 -102 c6
-120 0 -138 -48 -138 l-34 0 -3 -122 -3 -123 -42 -3 -42 -3 -3 -122 -3 -122
-42 -3 -43 -3 0 -120 c0 -87 -3 -121 -12 -123 -7 -2 -26 -7 -42 -12 l-29 -9
-3 -109 c-2 -60 -5 -111 -8 -113 -3 -3 -19 -6 -71 -12 -11 -1 -11 -6 -14 -153
l-1 -88 -40 0 -40 0 0 -165 0 -165 -45 0 -45 0 0 -125 0 -125 -34 0 c-19 0
-38 -5 -42 -11 -3 -6 -8 -59 -11 -117 -2 -58 -5 -107 -7 -109 -1 -2 -17 -4
-34 -6 -18 -2 -35 -6 -38 -10 -5 -5 -11 -85 -13 -199 l-1 -38 -45 0 -45 0 0
-125 0 -125 -40 0 -40 0 0 -106 c0 -121 -8 -144 -50 -144 -34 0 -33 2 -31
-115 1 -44 -2 -93 -8 -108 -9 -23 -16 -27 -51 -27 l-40 0 0 -120 c0 -113 -1
-120 -20 -121 -11 -1 -24 -3 -30 -4 -5 -1 -14 -3 -20 -4 -6 0 -10 -45 -10
-111 0 -123 -5 -132 -71 -125 -19 2 -53 4 -76 4 l-43 1 0 40 0 39 -87 3 c-79
3 -88 5 -91 23 -9 62 -11 65 -47 65 -31 0 -34 3 -37 33 -3 30 -6 32 -46 35
l-43 3 3 -33 c4 -30 8 -34 46 -42 38 -9 41 -12 44 -45 3 -34 5 -36 40 -39 35
-3 38 -6 39 -35 1 -58 8 -119 14 -126 7 -7 14 -8 50 -10 22 -1 25 -5 25 -41
l0 -40 44 0 c49 0 51 -3 55 -89 1 -30 4 -58 7 -63 3 -4 21 -8 40 -8 37 0 34
10 38 -105 2 -52 8 -60 47 -63 18 -1 34 -4 35 -5 1 -1 4 -32 7 -69 3 -37 8
-72 12 -77 3 -6 22 -11 41 -11 l34 0 0 -125 0 -125 45 0 44 0 3 -77 c3 -69 5
-78 23 -81 68 -10 65 -6 65 -86 0 -79 5 -86 56 -86 23 0 24 -2 24 -80 l0 -80
45 0 45 0 0 -84 0 -85 43 -3 42 -3 3 -77 3 -77 42 -3 42 -3 3 -82 3 -82 42 -3
42 -3 3 -77 3 -78 39 0 c40 0 40 0 40 -40 l0 -40 -40 0 -40 0 0 -159 c0 -88
-3 -162 -8 -165 -4 -2 -34 -5 -67 -7 -85 -3 -99 -10 -105 -50 -5 -31 -8 -34
-45 -39 -38 -5 -40 -7 -43 -42 l-3 -38 -85 0 -84 0 0 -29 c0 -34 -15 -48 -55
-53 -27 -3 -30 -7 -33 -41 -3 -35 -5 -37 -40 -38 -132 -3 -142 -7 -142 -49 0
-30 -5 -33 -65 -42 -15 -2 -21 -12 -23 -41 l-3 -37 -85 0 c-67 0 -84 -3 -85
-15 -1 -8 -3 -19 -4 -25 -1 -5 -3 -16 -4 -24 -1 -9 -15 -16 -38 -18 -33 -3
-38 -7 -44 -36 -4 -18 -8 -35 -10 -36 -2 -2 -37 -6 -78 -10 -78 -6 -84 -8 -87
-32 -5 -34 -14 -43 -46 -46 -30 -3 -33 -6 -36 -38 -2 -19 -6 -38 -10 -42 -4
-4 -38 -8 -77 -9 -86 -3 -95 -6 -95 -33 0 -32 -12 -44 -45 -48 -25 -2 -31 -9
-39 -40 l-10 -38 -83 0 c-81 0 -83 -1 -83 -24 0 -42 -11 -56 -41 -56 -43 0
-39 -30 4 -31 202 -4 6442 -2 6449 2 6 4 8 15 4 24 -4 13 -13 15 -36 10 -30
-7 -30 -6 -30 39 l0 46 -90 0 -90 0 0 40 0 40 -85 0 c-88 0 -91 2 -86 46 2 19
-29 38 -62 38 -30 1 -32 4 -35 39 -3 36 -4 37 -45 38 -130 2 -122 -1 -125 47
l-3 42 -40 -6 c-38 -6 -39 -6 -41 22 0 16 -2 35 -2 43 -1 13 -27 17 -148 20
-37 1 -38 2 -38 41 l0 40 -85 0 -85 0 0 39 c0 42 -11 51 -61 51 -18 0 -29 5
-28 13 1 6 1 24 0 40 l-1 27 -85 0 c-61 0 -85 4 -86 13 -3 49 -9 59 -43 62
-38 5 -46 13 -46 49 0 40 -8 44 -107 40 l-73 -2 0 28 c0 33 -15 47 -55 52 -26
3 -30 8 -33 36 -2 18 -9 35 -15 37 -22 8 -62 14 -109 14 -47 1 -47 1 -50 39
-3 37 -3 37 -50 40 -41 3 -47 6 -45 23 5 28 18 38 55 41 20 1 32 8 33 18 1 8
2 29 4 45 1 17 3 45 4 63 1 30 4 32 36 32 35 0 53 18 50 50 -2 26 16 40 51 40
l34 0 0 80 c0 78 1 80 25 81 37 2 43 3 50 11 6 6 12 52 14 116 1 28 4 32 29
32 37 0 67 23 67 51 0 18 8 25 35 32 19 5 38 14 42 20 4 7 8 42 8 80 0 67 4
74 43 68 20 -3 46 22 49 46 2 22 9 29 31 31 19 2 31 11 38 28 5 14 9 144 9
289 l0 264 48 3 47 3 -2 39 c-3 50 -18 66 -59 66 l-34 0 0 314 0 315 42 3 c35
3 43 7 48 28 4 14 3 36 -1 48 -7 18 -16 22 -49 22 l-40 0 0 45 0 45 -44 0 -45
0 6 68 c6 78 -7 102 -58 102 -26 0 -29 3 -30 33 -1 52 -8 110 -14 115 -3 3
-20 6 -38 6 l-32 1 -1 74 c-1 81 -8 91 -61 91 -31 0 -33 2 -34 38 -4 127 0
116 -47 126 l-42 10 0 78 0 78 -45 0 -46 0 3 75 c3 83 -3 95 -54 95 -28 0 -28
1 -28 64 0 89 -4 96 -56 96 l-44 0 0 85 0 85 -40 0 -40 0 0 63 c0 78 -9 92
-55 89 -35 -4 -35 -3 -37 40 -1 24 -3 57 -4 73 -1 17 -3 36 -3 43 -1 7 -16 12
-40 12 l-39 0 5 83 4 83 -43 0 -43 -1 -3 88 -3 87 -49 0 -49 0 -3 78 c-2 60
-6 77 -18 78 -62 4 -60 3 -60 38 0 37 -12 46 -60 46 -28 0 -28 0 -32 76 -4 79
-12 94 -55 94 -21 0 -23 5 -23 59 0 84 -4 91 -55 91 l-43 0 5 73 c6 86 -7 107
-63 107 -34 0 -34 0 -36 48 0 26 -2 52 -3 57 -2 6 -3 18 -4 27 -1 11 -13 19
-36 24 l-35 6 0 60 c0 78 -11 98 -55 98 -38 0 -35 -9 -39 107 -1 23 -5 46 -10
50 -7 8 -12 9 -53 11 -22 2 -23 6 -23 76 0 79 -7 93 -47 88 -29 -4 -40 20 -41
91 0 33 -3 61 -5 64 -3 2 -24 7 -46 10 l-40 6 -3 76 -3 76 -37 3 -38 3 0 80 0
79 -45 0 c-40 0 -45 3 -46 23 -2 48 -7 132 -8 139 0 4 -19 11 -41 14 l-40 7 0
48 0 49 -175 0 -175 0 0 -100z"/>
</g>
</svg>
